<svg xmlns="http://www.w3.org/2000/svg" width="128" height="128" viewBox="0 0 128 128">
  <!-- Gear/Cog shape with heart center - matches the new icon design -->

  <!-- Gear body with outline effect -->
  <g transform="translate(64, 64)">
    <!-- Dark outline/shadow -->
    <path d="M0,-52 L8,-52 L12,-44 L20,-44 L24,-52 L32,-48 L32,-40 L40,-36 L44,-44 L52,-36 L48,-28 L52,-20 L60,-20 L60,-8 L52,-4 L52,4 L60,8 L60,20 L52,20 L48,28 L52,36 L44,44 L40,36 L32,40 L32,48 L24,52 L20,44 L12,44 L8,52 L0,52 L-8,52 L-12,44 L-20,44 L-24,52 L-32,48 L-32,40 L-40,36 L-44,44 L-52,36 L-48,28 L-52,20 L-60,20 L-60,8 L-52,4 L-52,-4 L-60,-8 L-60,-20 L-52,-20 L-48,-28 L-52,-36 L-44,-44 L-40,-36 L-32,-40 L-32,-48 L-24,-52 L-20,-44 L-12,-44 L-8,-52 Z"
          fill="#1b2838" transform="translate(2, 2)"/>

    <!-- Main gear body (slate blue-gray) -->
    <path d="M0,-52 L8,-52 L12,-44 L20,-44 L24,-52 L32,-48 L32,-40 L40,-36 L44,-44 L52,-36 L48,-28 L52,-20 L60,-20 L60,-8 L52,-4 L52,4 L60,8 L60,20 L52,20 L48,28 L52,36 L44,44 L40,36 L32,40 L32,48 L24,52 L20,44 L12,44 L8,52 L0,52 L-8,52 L-12,44 L-20,44 L-24,52 L-32,48 L-32,40 L-40,36 L-44,44 L-52,36 L-48,28 L-52,20 L-60,20 L-60,8 L-52,4 L-52,-4 L-60,-8 L-60,-20 L-52,-20 L-48,-28 L-52,-36 L-44,-44 L-40,-36 L-32,-40 L-32,-48 L-24,-52 L-20,-44 L-12,-44 L-8,-52 Z"
          fill="#6b8299" stroke="#1b2838" stroke-width="3"/>

    <!-- Inner circle outline (dark) -->
    <circle cx="0" cy="0" r="26" fill="#1b2838"/>

    <!-- Inner circle (white/light) -->
    <circle cx="0" cy="0" r="22" fill="#ffffff"/>

    <!-- Heart in center (orange) -->
    <path d="M0,-8 C-4,-12 -12,-12 -12,-4 C-12,4 0,14 0,14 C0,14 12,4 12,-4 C12,-12 4,-12 0,-8 Z"
          fill="#e87b35"/>
  </g>
</svg>
